<?xml version="1.0" encoding="UTF-8" standalone="no"?>
<svg
   width="111.99835"
   height="111.99918"
   viewBox="0 0 111.99835 111.99918"
   fill="none"
   version="1.1"
   id="svg827"
   sodipodi:docname="kelimek_l.svg"
   inkscape:version="1.1.1 (c3084ef, 2021-09-22)"
   xmlns:inkscape="http://www.inkscape.org/namespaces/inkscape"
   xmlns:sodipodi="http://sodipodi.sourceforge.net/DTD/sodipodi-0.dtd"
   xmlns="http://www.w3.org/2000/svg"
   xmlns:svg="http://www.w3.org/2000/svg">
  <defs
     id="defs831" />
  <sodipodi:namedview
     id="namedview829"
     pagecolor="#ffffff"
     bordercolor="#666666"
     borderopacity="1.0"
     inkscape:pageshadow="2"
     inkscape:pageopacity="0.0"
     inkscape:pagecheckerboard="0"
     showgrid="false"
     inkscape:snap-bbox="true"
     inkscape:snap-intersection-paths="true"
     inkscape:snap-smooth-nodes="true"
     inkscape:zoom="3.9056007"
     inkscape:cx="76.684746"
     inkscape:cy="71.435873"
     inkscape:window-width="1792"
     inkscape:window-height="1120"
     inkscape:window-x="0"
     inkscape:window-y="0"
     inkscape:window-maximized="0"
     inkscape:current-layer="path2077" />
  <path
     style="color:#000000;fill:#333333;stroke-linecap:round;stroke-linejoin:round;-inkscape-stroke:none"
     d="M 6.2628494,0.19058383 A 8,8 0 0 0 0.19058379,9.7355056 L 21.522615,105.73551 a 8.0008,8.0008 0 0 0 7.810546,6.26367 h 53.332032 a 8.0008,8.0008 0 0 0 7.810546,-6.26367 L 111.80777,9.7355056 A 8,8 0 0 0 105.73551,0.19058383 8,8 0 0 0 96.190583,6.2628494 L 76.249177,95.999178 h -40.5 L 15.807771,6.2628494 A 8,8 0 0 0 6.2628494,0.19058383 Z"
     id="path1351" />
  <path
     id="path1879"
     style="fill:#333333;stroke:none;stroke-width:1px;stroke-linecap:butt;stroke-linejoin:miter;stroke-opacity:1"
     d="M 24.891755,10.262849 42.167146,87.999178 H 69.831208 L 87.106599,10.262849 Z" />
  <g
     id="path2077"
     transform="translate(7.9991775,7.9991775)">
    <path
       style="color:#000000;fill:#333333;stroke-width:16;stroke-linecap:round;stroke-linejoin:round;-inkscape-stroke:none"
       d="M -1.7363281,-7.8085937 A 8,8 0 0 0 -7.8085937,1.7363281 L 13.523438,97.736328 A 8.0008,8.0008 0 0 0 21.333984,104 h 53.332032 a 8.0008,8.0008 0 0 0 7.810546,-6.263672 L 103.80859,1.7363281 a 8,8 0 0 0 -6.072262,-9.5449218 8,8 0 0 0 -9.544922,6.0722656 L 68.25,88 H 27.75 L 7.8085937,-1.7363281 a 8,8 0 0 0 -9.5449218,-6.0722656 z"
       id="path2219" />
  </g>
</svg>
