<svg width="157" height="76" viewBox="0 0 157 76" fill="none" xmlns="http://www.w3.org/2000/svg">
<path d="M10.7891 20.7695L8.01172 35.043C7.75391 36.5664 7.66016 37.4922 7.73047 37.8203C7.77734 38.0547 7.99414 38.248 8.38086 38.4004C8.76758 38.5527 9.18359 38.6289 9.62891 38.6289C12.3242 38.6289 14.4395 37.8672 15.9746 36.3438C17.5215 34.8203 18.6289 32.3594 19.2969 28.9609C19.9531 25.5859 19.7012 22.9492 18.541 21.0508C17.3809 19.1523 15.5586 18.2031 13.0742 18.2031C12.1016 18.2031 11.5273 18.3438 11.3516 18.625C11.3047 18.707 11.2578 18.8008 11.2109 18.9062C11.1758 19 11.1406 19.1289 11.1055 19.293C11.0703 19.4453 11.041 19.5742 11.0176 19.6797C10.9941 19.7734 10.9531 19.9492 10.8945 20.207C10.8477 20.4648 10.8125 20.6523 10.7891 20.7695ZM14.3047 16.7969C16.8008 16.7969 18.8984 17.3008 20.5977 18.3086C22.3086 19.3047 23.5039 20.7168 24.1836 22.5449C24.8633 24.373 24.9688 26.4766 24.5 28.8555C24.1953 30.4609 23.6973 31.9023 23.0059 33.1797C22.3262 34.457 21.5176 35.5234 20.5801 36.3789C19.6543 37.2344 18.5879 37.9434 17.3809 38.5059C16.1855 39.0684 14.9375 39.4785 13.6367 39.7363C12.3477 39.9824 10.9766 40.1055 9.52344 40.1055H0.101562C0.0429689 40 0.0429689 39.7891 0.101562 39.4727C0.160156 39.1445 0.242188 38.9219 0.347656 38.8047C1.67188 38.6992 2.41016 38.5 2.5625 38.207C2.83203 37.7266 3.125 36.625 3.44141 34.9023L5.97266 21.9648C5.99609 21.8477 6.03125 21.6484 6.07812 21.3672C6.13672 21.0742 6.17773 20.875 6.20117 20.7695C6.22461 20.6523 6.25391 20.4824 6.28906 20.2598C6.32422 20.0371 6.34766 19.873 6.35938 19.7676C6.37109 19.6621 6.38281 19.5332 6.39453 19.3809C6.40625 19.2168 6.40625 19.082 6.39453 18.9766C6.39453 18.8594 6.38281 18.7539 6.35938 18.6602C6.3125 18.3906 5.64453 18.2031 4.35547 18.0977C4.30859 17.9805 4.32031 17.7637 4.39062 17.4473C4.46094 17.1191 4.54297 16.9023 4.63672 16.7969C5.59766 16.8672 7.14453 16.9023 9.27734 16.9023C9.80469 16.9023 10.666 16.8906 11.8613 16.8672C13.0684 16.832 13.8828 16.8086 14.3047 16.7969ZM34.9062 25.6211C34.2852 25.6211 33.6934 25.9609 33.1309 26.6406C32.5801 27.3086 32.123 28.1523 31.7598 29.1719C31.4082 30.1914 31.127 31.2695 30.916 32.4062C30.7168 33.543 30.6172 34.6094 30.6172 35.6055C30.6172 37.7383 31.0156 38.8047 31.8125 38.8047C32.6328 38.8047 33.3828 38.2363 34.0625 37.0996C34.7539 35.9512 35.2637 34.6387 35.5918 33.1621C35.9316 31.6855 36.1016 30.3086 36.1016 29.0312C36.1016 28.75 36.0957 28.5273 36.084 28.3633C36.084 28.1992 36.0723 27.959 36.0488 27.6426C36.0371 27.3262 36.002 27.0742 35.9434 26.8867C35.8965 26.6875 35.832 26.4824 35.75 26.2715C35.668 26.0488 35.5508 25.8848 35.3984 25.7793C35.2578 25.6738 35.0938 25.6211 34.9062 25.6211ZM35.293 24.2148C36.0664 24.2148 36.752 24.3027 37.3496 24.4785C37.9473 24.6426 38.4863 24.9238 38.9668 25.3223C39.459 25.709 39.834 26.2598 40.0918 26.9746C40.3613 27.6895 40.4961 28.5508 40.4961 29.5586C40.4961 31.1992 40.0215 32.8574 39.0723 34.5332C38.123 36.1973 36.9219 37.5625 35.4688 38.6289C34.0273 39.6836 32.6211 40.2109 31.25 40.2109C29.75 40.2109 28.5371 39.7539 27.6113 38.8398C26.6855 37.9258 26.2227 36.6484 26.2227 35.0078C26.2227 33.3672 26.6797 31.7031 27.5938 30.0156C28.5195 28.3164 29.6914 26.9277 31.1094 25.8496C32.5273 24.7598 33.9219 24.2148 35.293 24.2148ZM51.5352 27.3086C50.7734 27.3086 49.9473 28.0469 49.0566 29.5234C48.166 30.9883 47.5625 32.5234 47.2461 34.1289C47.1055 34.8438 47.0234 35.5293 47 36.1855C46.9883 36.8301 47.0703 37.3984 47.2461 37.8906C47.4336 38.3828 47.7266 38.6289 48.125 38.6289C48.8281 38.6289 49.5312 38.0898 50.2344 37.0117C50.9375 35.9336 51.4941 34.6797 51.9043 33.25C52.3145 31.8086 52.5195 30.5195 52.5195 29.3828C52.5195 28 52.1914 27.3086 51.5352 27.3086ZM48.3711 28.1875C48.9219 27.332 49.7773 26.459 50.9375 25.5684C52.0977 24.666 53.0703 24.2148 53.8555 24.2148C54.8516 24.2148 55.6309 24.5547 56.1934 25.2344C56.7676 25.9141 57.0547 26.8867 57.0547 28.1523C57.0547 29.7344 56.7148 31.2871 56.0352 32.8105C55.3672 34.334 54.5293 35.623 53.5215 36.6777C52.5254 37.7324 51.4414 38.5879 50.2695 39.2441C49.0977 39.8887 48.0078 40.2109 47 40.2109C45.8633 40.2109 44.8965 39.8477 44.0996 39.1211C43.3145 38.3828 42.9219 37.4219 42.9219 36.2383C42.9219 35.6055 42.9922 34.9609 43.1328 34.3047L45.875 20.3125C46.0859 19.3633 46.1914 18.7422 46.1914 18.4492C46.1914 18.0039 45.4766 17.7812 44.0469 17.7812C44 17.7109 43.9941 17.541 44.0293 17.2715C44.0645 17.002 44.1172 16.832 44.1875 16.7617C45.0898 16.6797 46.2617 16.4922 47.7031 16.1992C49.1445 15.9062 50.082 15.6836 50.5156 15.5312C50.6562 15.6133 50.7266 15.8359 50.7266 16.1992C50.7266 16.4922 50.5742 17.3711 50.2695 18.8359L48.3711 28.1875ZM67.2324 22.3516C67.0918 22.3516 66.9629 22.2344 66.8457 22C66.5176 21.3555 66.1602 20.6875 65.7734 19.9961C65.3867 19.293 65.0469 18.6836 64.7539 18.168C64.4609 17.6523 64.291 17.3477 64.2441 17.2539C64.3379 16.7852 64.4785 16.5156 64.666 16.4453C66.0254 17.5586 67.0508 18.4961 67.7422 19.2578C68.293 18.8359 69.0195 18.3145 69.9219 17.6934C70.8359 17.0723 71.4863 16.6562 71.873 16.4453C71.9434 16.4805 71.9902 16.5801 72.0137 16.7441C72.0488 16.9082 72.0488 17.0781 72.0137 17.2539C70.9824 18.2852 69.541 19.8672 67.6895 22C67.4902 22.2344 67.3379 22.3516 67.2324 22.3516ZM71.2227 24.2148C71.6914 24.2148 72.043 24.25 72.2773 24.3203C72.5234 24.3789 72.8164 24.4961 73.1562 24.6719C73.5312 25.1406 73.7188 25.6562 73.7188 26.2188C73.7188 27.0039 73.5078 27.625 73.0859 28.082C72.6758 28.5273 72.207 28.75 71.6797 28.75C71.4688 28.75 71.2695 28.7207 71.082 28.6621C70.9062 28.5918 70.7012 28.4863 70.4668 28.3457C70.2324 28.2051 70.0977 28.1289 70.0625 28.1172C70.0156 28.0938 69.9453 28.0586 69.8516 28.0117C69.7578 27.9531 69.6934 27.918 69.6582 27.9062C69.623 27.8945 69.5586 27.8828 69.4648 27.8711C69.3711 27.8477 69.2539 27.8359 69.1133 27.8359C68.7734 27.8359 68.2988 28.2637 67.6895 29.1191C67.0801 29.9746 66.4648 31.1172 65.8438 32.5469C65.2227 33.9766 64.7539 35.3945 64.4375 36.8008L63.7344 40C63.2656 40.1406 62.6094 40.2109 61.7656 40.2109C60.9453 40.2109 60.2539 40.1406 59.6914 40L61.7656 29.1367C61.8828 28.668 61.9414 28.2812 61.9414 27.9766C61.9414 27.8008 61.8945 27.6367 61.8008 27.4844C61.707 27.3203 61.5781 27.2383 61.4141 27.2383C61.0859 27.2383 60.6113 27.543 59.9902 28.1523C59.3809 28.7617 59.0234 29.1719 58.918 29.3828C58.8125 29.3828 58.7012 29.2598 58.584 29.0137C58.4785 28.7676 58.4258 28.5742 58.4258 28.4336C58.8125 27.707 59.6035 26.8223 60.7988 25.7793C62.0059 24.7363 63.0312 24.2148 63.875 24.2148C64.5898 24.2148 65.1582 24.4316 65.5801 24.8652C66.0137 25.2988 66.2305 25.9141 66.2305 26.7109C66.2305 27.0625 66.125 27.7656 65.9141 28.8203C65.8906 28.9492 65.8379 29.2012 65.7559 29.5762C65.6738 29.9512 65.5977 30.2969 65.5273 30.6133C65.457 30.9297 65.4219 31.082 65.4219 31.0703C65.7031 30.0156 66.1836 28.9551 66.8633 27.8887C67.543 26.8105 68.2812 25.9316 69.0781 25.252C69.8867 24.5605 70.6016 24.2148 71.2227 24.2148ZM84.0195 24.2148C84.6055 24.2148 85.2734 24.2852 86.0234 24.4258C86.7852 24.5664 87.3711 24.707 87.7812 24.8477L85.6016 35.3594C85.5078 35.7344 85.4609 36.1211 85.4609 36.5195C85.4609 36.707 85.502 36.877 85.584 37.0293C85.666 37.1816 85.7891 37.2578 85.9531 37.2578C86.2812 37.2578 86.75 36.9531 87.3594 36.3438C87.9805 35.7344 88.3438 35.3242 88.4492 35.1133C88.5547 35.1133 88.6602 35.2363 88.7656 35.4824C88.8828 35.7285 88.9414 35.9219 88.9414 36.0625C88.7188 36.4727 88.2969 37 87.6758 37.6445C87.0547 38.2891 86.3223 38.8926 85.4785 39.4551C84.6465 40.0059 83.9375 40.2812 83.3516 40.2812C82.707 40.2812 82.1797 40.082 81.7695 39.6836C81.3711 39.2852 81.1719 38.7109 81.1719 37.9609C81.1719 37.8438 81.1953 37.6211 81.2422 37.293C81.2656 37.1523 81.3125 36.9297 81.3828 36.625C80.9258 37.4219 80.1934 38.2246 79.1855 39.0332C78.1777 39.8418 77.1992 40.2461 76.25 40.2461C75.3008 40.2461 74.5566 39.8418 74.0176 39.0332C73.4902 38.2246 73.2266 37.1992 73.2266 35.957C73.2266 34.4453 73.5781 32.957 74.2812 31.4922C74.9961 30.0156 75.8867 28.7559 76.9531 27.7129C78.0195 26.6699 79.1855 25.8262 80.4512 25.1816C81.7168 24.5371 82.9062 24.2148 84.0195 24.2148ZM82.0508 26.1484C81.2773 26.1484 80.5449 26.5703 79.8535 27.4141C79.1738 28.2461 78.6348 29.3184 78.2363 30.6309C77.8496 31.9434 77.6562 33.2852 77.6562 34.6562C77.6562 36.3203 78.0781 37.1523 78.9219 37.1523C79.5078 37.1523 80.1699 36.4258 80.9082 34.9727C81.6582 33.5078 82.2148 31.8906 82.5781 30.1211L83.2812 26.5703C83.0352 26.2891 82.625 26.1484 82.0508 26.1484ZM97.9062 28.8203C97.8828 28.9492 97.8418 29.1426 97.7832 29.4004C97.7246 29.6582 97.6719 29.8867 97.625 30.0859C97.5781 30.2852 97.5547 30.3789 97.5547 30.3672C97.918 29.5586 98.4512 28.6797 99.1543 27.7305C99.8574 26.7812 100.619 25.9609 101.439 25.2695C102.26 24.5664 102.945 24.2148 103.496 24.2148C104.445 24.2148 105.102 24.4609 105.465 24.9531C105.84 25.4453 106.027 26.2188 106.027 27.2734C106.027 27.8594 105.793 29.3711 105.324 31.8086L104.656 35.3594C104.562 35.7344 104.516 36.1211 104.516 36.5195C104.516 36.707 104.557 36.877 104.639 37.0293C104.721 37.1816 104.844 37.2578 105.008 37.2578C105.336 37.2578 105.805 36.9531 106.414 36.3438C107.035 35.7344 107.398 35.3242 107.504 35.1133C107.609 35.1133 107.715 35.2363 107.82 35.4824C107.938 35.7285 107.996 35.9219 107.996 36.0625C107.773 36.4727 107.352 37 106.73 37.6445C106.109 38.2891 105.377 38.8926 104.533 39.4551C103.701 40.0059 102.992 40.2812 102.406 40.2812C101.773 40.2812 101.246 40.0762 100.824 39.666C100.402 39.2559 100.191 38.6289 100.191 37.7852C100.191 37.2227 100.297 36.5195 100.508 35.6758L101.316 31.4922C101.375 31.2578 101.457 30.7949 101.562 30.1035C101.68 29.4121 101.738 28.9844 101.738 28.8203C101.738 28.6211 101.686 28.4512 101.58 28.3105C101.486 28.1582 101.352 28.082 101.176 28.082C100.836 28.082 100.355 28.4922 99.7344 29.3125C99.1133 30.1211 98.4805 31.2227 97.8359 32.6172C97.2031 34 96.7344 35.3945 96.4297 36.8008L95.7266 40C95.2578 40.1406 94.6016 40.2109 93.7578 40.2109C92.9375 40.2109 92.2461 40.1406 91.6836 40L93.7578 29.1367C93.875 28.668 93.9336 28.2812 93.9336 27.9766C93.9336 27.8008 93.8867 27.6367 93.793 27.4844C93.6992 27.3203 93.5703 27.2383 93.4062 27.2383C93.0781 27.2383 92.6035 27.543 91.9824 28.1523C91.373 28.7617 91.0156 29.1719 90.9102 29.3828C90.8047 29.3828 90.6934 29.2598 90.5762 29.0137C90.4707 28.7676 90.418 28.5742 90.418 28.4336C90.8047 27.707 91.5957 26.8223 92.791 25.7793C93.998 24.7363 95.0234 24.2148 95.8672 24.2148C96.582 24.2148 97.1504 24.4316 97.5723 24.8652C98.0059 25.2988 98.2227 25.9141 98.2227 26.7109C98.2227 27.0625 98.1172 27.7656 97.9062 28.8203ZM116.715 24.2148C118.355 24.2148 119.645 24.5781 120.582 25.3047C120.84 25.5859 120.969 26.0547 120.969 26.7109C120.969 27.1445 120.805 27.5547 120.477 27.9414C120.16 28.3164 119.738 28.5039 119.211 28.5039C118.566 28.5039 117.875 27.9648 117.137 26.8867C116.949 26.5938 116.791 26.3711 116.662 26.2188C116.533 26.0664 116.357 25.9258 116.135 25.7969C115.924 25.6562 115.684 25.5859 115.414 25.5859C115.016 25.5859 114.682 25.7383 114.412 26.043C114.143 26.3477 114.008 26.7344 114.008 27.2031C114.008 27.5078 114.131 27.8477 114.377 28.2227C114.635 28.5859 114.904 28.9082 115.186 29.1895C115.479 29.459 115.871 29.8047 116.363 30.2266C116.855 30.6484 117.207 30.9648 117.418 31.1758C117.734 31.4805 117.963 31.7148 118.104 31.8789C118.256 32.0312 118.449 32.2832 118.684 32.6348C118.93 32.9863 119.105 33.373 119.211 33.7949C119.328 34.2051 119.387 34.668 119.387 35.1836C119.387 36.6953 118.754 37.9199 117.488 38.8574C116.234 39.7832 114.723 40.2461 112.953 40.2461C112.273 40.2461 111.588 40.1406 110.896 39.9297C110.205 39.7188 109.66 39.4609 109.262 39.1562C108.98 38.8164 108.84 38.3711 108.84 37.8203C108.84 37.3398 108.998 36.9062 109.314 36.5195C109.631 36.1211 110.035 35.9219 110.527 35.9219C110.938 35.9219 111.295 36.0508 111.6 36.3086C111.916 36.5664 112.262 36.9648 112.637 37.5039C112.977 37.9844 113.275 38.3301 113.533 38.541C113.791 38.7402 114.125 38.8398 114.535 38.8398C114.91 38.8398 115.268 38.6699 115.607 38.3301C115.947 37.9902 116.117 37.6562 116.117 37.3281C116.117 36.9648 115.982 36.5781 115.713 36.168C115.455 35.7578 115.162 35.4004 114.834 35.0957C114.506 34.791 114.096 34.4219 113.604 33.9883C113.123 33.543 112.754 33.1797 112.496 32.8984C112.461 32.8516 112.355 32.7344 112.18 32.5469C112.004 32.3594 111.893 32.2363 111.846 32.1777C111.799 32.1191 111.705 32.002 111.564 31.8262C111.436 31.6504 111.348 31.5156 111.301 31.4219C111.254 31.3164 111.184 31.1699 111.09 30.9824C110.996 30.7832 110.932 30.6016 110.896 30.4375C110.873 30.2734 110.844 30.0742 110.809 29.8398C110.785 29.6055 110.773 29.3594 110.773 29.1016C110.773 27.6953 111.336 26.5293 112.461 25.6035C113.586 24.6777 115.004 24.2148 116.715 24.2148ZM134.961 24.2148C136.883 24.2148 137.844 25.0586 137.844 26.7461C137.844 27.2969 137.656 27.8477 137.281 28.3984C136.906 28.9492 136.408 29.4473 135.787 29.8926C135.178 30.3262 134.533 30.7129 133.854 31.0527C133.186 31.3926 132.5 31.6797 131.797 31.9141C131.973 32.418 132.178 32.9336 132.412 33.4609C132.658 33.9883 132.945 34.5449 133.273 35.1309C133.602 35.7168 133.959 36.1973 134.346 36.5723C134.732 36.9355 135.102 37.1172 135.453 37.1172C135.711 37.1172 136.021 36.9707 136.385 36.6777C136.76 36.3848 137.059 36.1094 137.281 35.8516C137.504 35.5938 137.691 35.3594 137.844 35.1484C137.996 35.1484 138.113 35.2656 138.195 35.5C138.289 35.7227 138.336 35.9102 138.336 36.0625C138.102 36.6836 137.393 37.5215 136.209 38.5762C135.025 39.6191 133.965 40.1406 133.027 40.1406C132.512 40.1406 132.002 39.959 131.498 39.5957C131.006 39.2207 130.578 38.7695 130.215 38.2422C129.852 37.7148 129.494 37.0938 129.143 36.3789C128.803 35.6523 128.527 35.0078 128.316 34.4453C128.117 33.8711 127.93 33.2852 127.754 32.6875L126.312 40C125.844 40.1406 125.188 40.2109 124.344 40.2109C123.523 40.2109 122.832 40.1406 122.27 40C124.578 28.082 125.832 21.5195 126.031 20.3125C126.242 19.3047 126.348 18.6836 126.348 18.4492C126.348 18.0039 125.633 17.7812 124.203 17.7812C124.156 17.7109 124.15 17.541 124.186 17.2715C124.221 17.002 124.273 16.832 124.344 16.7617C125.246 16.6797 126.418 16.4922 127.859 16.1992C129.301 15.9062 130.238 15.6836 130.672 15.5312C130.812 15.6133 130.883 15.8359 130.883 16.1992C130.883 16.5391 130.73 17.418 130.426 18.8359L128.703 28.0117C128.82 27.7539 129.072 27.4258 129.459 27.0273C129.846 26.6172 130.314 26.2012 130.865 25.7793C131.416 25.3457 132.061 24.9766 132.799 24.6719C133.549 24.3672 134.27 24.2148 134.961 24.2148ZM132.324 26.8516C131.844 26.8516 131.328 27.0449 130.777 27.4316C130.238 27.8066 129.775 28.2461 129.389 28.75C129.002 29.2539 128.68 29.7461 128.422 30.2266C128.164 30.707 128.035 31.0586 128.035 31.2812C128.785 31.2812 129.559 31.1406 130.355 30.8594C131.164 30.5781 131.855 30.1797 132.43 29.6641C133.016 29.1367 133.309 28.5742 133.309 27.9766C133.309 27.7188 133.232 27.4668 133.08 27.2207C132.928 26.9746 132.676 26.8516 132.324 26.8516ZM149.621 22.4219C149.434 22.3047 149.328 22.1641 149.305 22C149.363 21.7891 149.82 21.0918 150.676 19.9082C151.531 18.7246 152.199 17.9102 152.68 17.4648C152.844 17.3008 153.207 17.2188 153.77 17.2188C154.121 17.2188 154.473 17.3535 154.824 17.623C155.176 17.8809 155.352 18.2266 155.352 18.6602C155.352 19.0352 154.906 19.5273 154.016 20.1367C153.125 20.7344 152.234 21.25 151.344 21.6836C150.465 22.1172 149.891 22.3633 149.621 22.4219ZM150.605 24.2148C151.191 24.2148 151.859 24.2852 152.609 24.4258C153.371 24.5664 153.957 24.707 154.367 24.8477L152.188 35.3594C152.094 35.7344 152.047 36.1211 152.047 36.5195C152.047 36.707 152.088 36.877 152.17 37.0293C152.252 37.1816 152.375 37.2578 152.539 37.2578C152.867 37.2578 153.336 36.9531 153.945 36.3438C154.566 35.7344 154.93 35.3242 155.035 35.1133C155.141 35.1133 155.246 35.2363 155.352 35.4824C155.469 35.7285 155.527 35.9219 155.527 36.0625C155.305 36.4727 154.883 37 154.262 37.6445C153.641 38.2891 152.908 38.8926 152.064 39.4551C151.232 40.0059 150.523 40.2812 149.938 40.2812C149.293 40.2812 148.766 40.082 148.355 39.6836C147.957 39.2852 147.758 38.7109 147.758 37.9609C147.758 37.8438 147.781 37.6211 147.828 37.293C147.852 37.1523 147.898 36.9297 147.969 36.625C147.512 37.4219 146.779 38.2246 145.771 39.0332C144.764 39.8418 143.785 40.2461 142.836 40.2461C141.887 40.2461 141.143 39.8418 140.604 39.0332C140.076 38.2246 139.812 37.1992 139.812 35.957C139.812 34.4453 140.164 32.957 140.867 31.4922C141.582 30.0156 142.473 28.7559 143.539 27.7129C144.605 26.6699 145.771 25.8262 147.037 25.1816C148.303 24.5371 149.492 24.2148 150.605 24.2148ZM148.637 26.1484C147.863 26.1484 147.131 26.5703 146.439 27.4141C145.76 28.2461 145.221 29.3184 144.822 30.6309C144.436 31.9434 144.242 33.2852 144.242 34.6562C144.242 36.3203 144.664 37.1523 145.508 37.1523C146.094 37.1523 146.756 36.4258 147.494 34.9727C148.244 33.5078 148.801 31.8906 149.164 30.1211L149.867 26.5703C149.621 26.2891 149.211 26.1484 148.637 26.1484Z" fill="#FEE3A5"/>
<path d="M36.5527 58.627H42.6699V61H32.7031V59.374L38.8027 50.585H32.668V48.2031H42.6084V49.7852L36.5527 58.627ZM48.1279 48.2031L50.9844 57.1064L53.832 48.2031H57.8926V61H54.7988V58.0117L55.0977 51.8945L52.0039 61H49.9648L46.8623 51.8857L47.1611 58.0117V61H44.0762V48.2031H48.1279ZM64.6162 56.4824H62.9463V61H59.8613V48.2031H64.8975C66.415 48.2031 67.6016 48.54 68.457 49.2139C69.3125 49.8877 69.7402 50.8398 69.7402 52.0703C69.7402 52.9609 69.5586 53.6992 69.1953 54.2852C68.8379 54.8711 68.2754 55.3457 67.5078 55.709L70.1797 60.8682V61H66.875L64.6162 56.4824ZM62.9463 54.1006H64.8975C65.4834 54.1006 65.9229 53.9482 66.2158 53.6436C66.5146 53.333 66.6641 52.9023 66.6641 52.3516C66.6641 51.8008 66.5146 51.3701 66.2158 51.0596C65.917 50.7432 65.4775 50.585 64.8975 50.585H62.9463V54.1006ZM75.0664 58.627H81.1836V61H71.2168V59.374L77.3164 50.585H71.1816V48.2031H81.1221V49.7852L75.0664 58.627ZM85.6748 58.627H91.0449V61H82.5898V48.2031H85.6748V58.627ZM95.6328 61H92.5566V48.2031H95.6328V61ZM108.465 61H105.397L100.862 53.0371V61H97.7773V48.2031H100.862L105.389 56.166V48.2031H108.465V61ZM117.843 58.6094H113.615L112.877 61H109.581L114.274 48.2031H117.175L121.903 61H118.59L117.843 58.6094ZM114.354 56.2275H117.104L115.725 51.7891L114.354 56.2275Z" fill="#FEE3A5"/>
</svg>
