<svg width="131" height="131" viewBox="0 0 131 131" fill="none" 
    xmlns="http://www.w3.org/2000/svg">
    <g clip-path="url(#clip0)">
        <path d="M38.8 39.8889H49L55.8 33H76.2L83 39.8889H93.2C95.0035 39.8889 96.7331 40.6147 98.0083 41.9066C99.2836 43.1985 100 44.9507 100 46.7778V88.1111C100 89.9382 99.2836 91.6904 98.0083 92.9823C96.7331 94.2742 95.0035 95 93.2 95H38.8C36.9965 95 35.2669 94.2742 33.9917 92.9823C32.7164 91.6904 32 89.9382 32 88.1111V46.7778C32 44.9507 32.7164 43.1985 33.9917 41.9066C35.2669 40.6147 36.9965 39.8889 38.8 39.8889ZM66 50.2222C61.4913 50.2222 57.1673 52.0367 53.9792 55.2665C50.7911 58.4963 49 62.8768 49 67.4444C49 72.0121 50.7911 76.3926 53.9792 79.6224C57.1673 82.8522 61.4913 84.6667 66 84.6667C70.5087 84.6667 74.8327 82.8522 78.0208 79.6224C81.2089 76.3926 83 72.0121 83 67.4444C83 62.8768 81.2089 58.4963 78.0208 55.2665C74.8327 52.0367 70.5087 50.2222 66 50.2222ZM66 57.1111C68.7052 57.1111 71.2996 58.1998 73.2125 60.1377C75.1254 62.0755 76.2 64.7039 76.2 67.4444C76.2 70.185 75.1254 72.8133 73.2125 74.7512C71.2996 76.6891 68.7052 77.7778 66 77.7778C63.2948 77.7778 60.7004 76.6891 58.7875 74.7512C56.8746 72.8133 55.8 70.185 55.8 67.4444C55.8 64.7039 56.8746 62.0755 58.7875 60.1377C60.7004 58.1998 63.2948 57.1111 66 57.1111Z" fill="#1B549E"/>
    </g>
    <defs>
        <clipPath id="clip0">
            <rect width="131" height="131" fill="white"/>
        </clipPath>
    </defs>
</svg>
