<svg width="131" height="131" viewBox="0 0 131 131" fill="none" 
    xmlns="http://www.w3.org/2000/svg">
    <path d="M66 28C70.3761 28 74.5729 29.7325 77.6673 32.8165C80.7616 35.9004 82.5 40.0831 82.5 44.4444C82.5 48.8058 80.7616 52.9885 77.6673 56.0724C74.5729 59.1564 70.3761 60.8889 66 60.8889C61.6239 60.8889 57.4271 59.1564 54.3327 56.0724C51.2384 52.9885 49.5 48.8058 49.5 44.4444C49.5 40.0831 51.2384 35.9004 54.3327 32.8165C57.4271 29.7325 61.6239 28 66 28ZM82.5 71.3311C82.5 75.6889 81.345 85.8433 73.4663 97.19L70.125 77.3333L74.0025 69.6044C71.445 69.3167 68.7637 69.1111 66 69.1111C63.2362 69.1111 60.555 69.3167 57.9975 69.6044L61.875 77.3333L58.5337 97.19C50.655 85.8433 49.5 75.6889 49.5 71.3311C39.6412 74.2089 33 79.3889 33 85.5556V102H57.75H62.2463H69.7537H74.25H99V85.5556C99 79.3889 92.4 74.2089 82.5 71.3311Z" fill="#1B549E"/>
</svg>
